Coordinates
version=1
nRows=11
nColumns=63
inDegrees=yes

Units are S.I. units (second, meters, Newtons, ...)
If the header above contains a line with 'inDegrees', this indicates whether rotational values are in degrees (yes) or radians (no).

endheader
time	pelvis_tilt	pelvis_list	pelvis_rotation	pelvis_tx	pelvis_ty	pelvis_tz	hip_flexion_r	hip_adduction_r	hip_rotation_r	knee_angle_r	knee_angle_r_beta	ankle_angle_r	subtalar_angle_r	mtp_angle_r	hip_flexion_l	hip_adduction_l	hip_rotation_l	knee_angle_l	knee_angle_l_beta	ankle_angle_l	subtalar_angle_l	mtp_angle_l	L5_S1_Flex_Ext	L5_S1_Lat_Bending	L5_S1_axial_rotation	L4_L5_Flex_Ext	L4_L5_Lat_Bending	L4_L5_axial_rotation	L3_L4_Flex_Ext	L3_L4_Lat_Bending	L3_L4_axial_rotation	L2_L3_Flex_Ext	L2_L3_Lat_Bending	L2_L3_axial_rotation	L1_L2_Flex_Ext	L1_L2_Lat_Bending	L1_L2_axial_rotation	L1_T12_Flex_Ext	L1_T12_Lat_Bending	L1_T12_axial_rotation	Abs_r3	Abs_r2	Abs_r1	Abs_t1	Abs_t2	neck_flexion	neck_bending	neck_rotation	arm_flex_r	arm_add_r	arm_rot_r	elbow_flex_r	pro_sup_r	wrist_flex_r	wrist_dev_r	arm_flex_l	arm_add_l	arm_rot_l	elbow_flex_l	pro_sup_l	wrist_flex_l	wrist_dev_l
5.216667	-0.887818	-6.863080	112.452090	0.185496	0.354107	0.609669	-9.621383	0.248773	-10.824415	7.775308	0.135705	34.824836	0.248162	0.000000	-9.054238	-0.999805	13.939516	2.568610	0.044831	30.486694	-10.105029	0.000000	0.076660	0.114194	1.082610	0.142365	0.151879	1.150273	0.125944	0.277652	1.150273	0.087614	0.277652	0.947284	0.071186	0.232865	0.879621	0.043803	0.176887	0.811958	0.547573	1.291790	6.021154	0.000000	0.000000	12.532103	-2.276296	10.874167	-6.264553	-22.377471	34.225894	48.216076	90.190189	-2.174553	11.785099	13.884465	-4.579923	203.261087	2.917594	15.776451	-13.049473	-8.753496
5.233333	-0.944070	-6.601495	112.536068	0.184635	0.354684	0.608854	-9.941339	0.278747	-11.251911	7.891734	0.137737	34.752446	0.635922	0.000000	-9.369708	-1.032985	13.865297	2.633097	0.045956	30.439630	-9.817880	0.000000	0.063331	0.128261	1.118029	0.117613	0.170586	1.187905	0.104047	0.311853	1.187905	0.072381	0.311853	0.978275	0.058810	0.261549	0.908398	0.036188	0.198676	0.838521	0.452370	1.450909	6.218140	0.000000	0.000000	12.160169	-2.530660	11.535460	-6.433443	-22.400065	30.781668	47.850346	89.765080	-2.820265	12.051693	14.786800	-4.748153	205.068692	1.770398	12.028566	-13.180624	-10.408677
5.250000	-1.031288	-6.404220	112.669775	0.183822	0.355093	0.608297	-10.248835	0.277441	-11.572077	7.932575	0.138450	34.599591	0.821402	0.000000	-9.583782	-1.016816	13.753507	2.763358	0.048230	30.436028	-9.407278	0.000000	0.050292	0.134995	1.151657	0.093397	0.179544	1.223636	0.082625	0.328227	1.223636	0.057479	0.328227	1.007700	0.046701	0.275282	0.935722	0.028737	0.209108	0.863743	0.359231	1.527093	6.405173	0.000000	0.000000	11.841227	-2.803945	12.089306	-6.706321	-22.228476	26.511994	47.391562	89.541951	-3.461467	12.346401	15.728982	-5.294566	202.154942	1.448870	9.843465	-12.946241	-11.666886
5.266667	-1.117293	-6.270019	112.844138	0.183016	0.355341	0.607952	-10.522582	0.271331	-11.736731	7.911726	0.138086	34.347882	0.742890	0.000000	-9.695395	-0.979825	13.554074	2.945913	0.051416	30.489673	-8.856425	0.000000	0.040015	0.139639	1.174698	0.074312	0.185719	1.248117	0.065741	0.339517	1.248117	0.045733	0.339517	1.027861	0.037158	0.284751	0.954442	0.022865	0.216300	0.881023	0.285824	1.579620	6.533317	0.000000	0.000000	11.547750	-3.105656	12.668447	-7.020880	-21.959293	21.872995	46.918898	89.148423	-4.066931	12.675278	16.655455	-6.186424	194.714284	2.006220	8.965043	-12.398853	-12.269477
5.283333	-1.190645	-6.197948	113.064593	0.182233	0.355453	0.607800	-10.750775	0.272324	-11.768611	7.835290	0.136752	34.034747	0.435929	0.000000	-9.703215	-0.937267	13.264409	3.175465	0.055422	30.590951	-8.174903	0.000000	0.032866	0.143420	1.187000	0.061035	0.190749	1.261187	0.053995	0.348712	1.261187	0.037562	0.348712	1.038625	0.030519	0.292462	0.964437	0.018779	0.222158	0.890250	0.234756	1.622397	6.601737	0.000000	0.000000	11.260837	-3.394320	13.294978	-7.354725	-21.633511	17.035517	46.483209	88.715435	-4.550220	13.093744	17.649903	-7.333958	183.388972	3.276259	9.635736	-11.334149	-12.359220
5.300000	-1.237490	-6.173225	113.307131	0.181505	0.355488	0.607849	-10.919267	0.290668	-11.666033	7.727275	0.134866	33.680995	-0.063814	0.000000	-9.624271	-0.907033	12.893745	3.434701	0.059947	30.736226	-7.403746	0.000000	0.027145	0.149309	1.188802	0.050412	0.198581	1.263102	0.044597	0.363031	1.263102	0.031024	0.363031	1.040202	0.025207	0.304471	0.965902	0.015511	0.231280	0.891602	0.193896	1.689016	6.611761	0.000000	0.000000	10.961422	-3.657476	14.041216	-7.622769	-21.326763	12.298539	46.111889	88.362961	-4.782866	13.644634	18.768865	-8.631668	168.930869	5.153816	12.242720	-9.749574	-11.992469
5.316667	-1.249925	-6.196109	113.542006	0.180812	0.355486	0.608088	-10.999338	0.301336	-11.822059	7.634242	0.133243	33.431559	-0.189603	0.000000	-9.467540	-0.885601	12.562373	3.705025	0.064665	30.859954	-6.762327	0.000000	0.024290	0.158606	1.190703	0.045109	0.210946	1.265122	0.039906	0.385635	1.265122	0.027761	0.385635	1.041865	0.022556	0.323429	0.967447	0.013879	0.245681	0.893028	0.173501	1.794183	6.622335	0.000000	0.000000	10.668399	-3.938022	14.821928	-7.803195	-21.096427	7.916779	45.808606	88.096097	-4.807087	14.219113	20.058069	-9.897644	152.574182	7.441015	17.481463	-7.985714	-11.471828
5.333333	-1.213852	-6.251269	113.748088	0.180192	0.355498	0.608506	-10.991480	0.322260	-12.113957	7.563184	0.132002	33.245350	-0.084958	0.000000	-9.241616	-0.894019	12.141753	3.988317	0.069609	31.003386	-6.087071	0.000000	0.023552	0.174960	1.185420	0.043739	0.232697	1.259509	0.038694	0.425399	1.259509	0.026918	0.425399	1.037242	0.021871	0.356779	0.963154	0.013458	0.271014	0.889065	0.168232	1.979187	6.592950	0.000000	0.000000	10.399099	-4.269477	15.761896	-7.722808	-21.034930	4.490154	45.526292	87.890570	-4.814272	14.663102	21.258621	-10.908923	139.030282	9.366623	21.966195	-5.743152	-10.948499
5.350000	-1.149485	-6.320150	113.905496	0.179696	0.355524	0.609076	-10.917067	0.343617	-12.432706	7.523949	0.131318	33.118136	0.129289	0.000000	-8.979778	-0.916544	11.708837	4.271762	0.074556	31.159989	-5.474602	0.000000	0.023492	0.194192	1.184579	0.043628	0.258275	1.258615	0.038596	0.472157	1.258615	0.026849	0.472157	1.036507	0.021815	0.395995	0.962471	0.013424	0.300803	0.888434	0.167804	2.196734	6.588274	0.000000	0.000000	10.151734	-4.655468	16.632161	-7.348522	-21.116271	2.188088	45.229289	87.761221	-4.853148	14.923812	22.564623	-11.782309	126.354784	11.391039	27.788401	-3.544708	-10.323012
5.366667	-1.060911	-6.389749	114.004640	0.179349	0.355556	0.609743	-10.791364	0.370620	-12.729417	7.524002	0.131319	33.031964	0.380025	0.000000	-8.698832	-0.956434	11.242271	4.553645	0.079476	31.364152	-4.881416	0.000000	0.023472	0.214987	1.186622	0.043590	0.285932	1.260786	0.038563	0.522718	1.260786	0.026826	0.522718	1.038294	0.021796	0.438401	0.964130	0.013412	0.333014	0.889967	0.167660	2.431971	6.599636	0.000000	0.000000	9.942932	-5.073778	17.400510	-6.629985	-21.308667	1.202878	44.870128	87.720368	-5.046732	14.870609	23.905901	-12.524930	114.700402	13.578106	34.840528	-1.475406	-9.629596
5.383333	-0.964261	-6.460322	114.054528	0.179153	0.355563	0.610449	-10.625640	0.394267	-12.968898	7.572240	0.132161	32.983132	0.616023	0.000000	-8.405626	-1.004663	10.725892	4.836214	0.084408	31.634997	-4.236278	0.000000	0.023445	0.233826	1.187012	0.043540	0.310989	1.261200	0.038518	0.568526	1.261200	0.026795	0.568526	1.038635	0.021771	0.476819	0.964447	0.013396	0.362197	0.890259	0.167465	2.645091	6.601804	0.000000	0.000000	9.811469	-5.490823	18.003848	-5.596862	-21.523849	1.447852	44.445883	87.767170	-5.378817	14.517482	25.187829	-13.118566	104.142867	15.940162	42.928820	0.540502	-8.889354
